# xmcd
#
# Track frame offsets:
#	300
#	15238
#	32420
#	48320
#	64023
#	79248
#	94354
#	112357
#	125667
#	146936
#	161265
#	174305
#	195243
#	211090
#	228466
#	245861
#	261379
#	283937
#	296542
#	312343
#
# Disc length: 4457 seconds
#
# Revision: 1
# Processed by: cddbd v1.5.2PL0 Copyright (c) Steve Scherf et al.
# Submitted via: audiograbber 1.83.01
#
DISCID=2a116514
DTITLE=CD Pool - Radio February 2011
DYEAR=2011
DGENRE=Pop
TTITLE0=Nicole Scherzinger - Don't Hold Your Breath
TTITLE1=Britney Spears - Hold It Against Me
TTITLE2=Clare Maguire - Last Dance
TTITLE3=Olly Murs - Heart On My Sleeve
TTITLE4=Wonderland - Not A Love Song
TTITLE5=Alesha Dixon Ft Jay Sean - Every Little Part Of Me
TTITLE6=Chris Brown - Yeah X3
TTITLE7=Shontelle - Perfect Nightmare
TTITLE8=Take That - Kidz
TTITLE9=Madcon Ft Maad Moiselle - Outrun The Sun
TTITLE10=Parade - Louder
TTITLE11=Nicki Minaj Ft Drake - Moment 4 Life (Explicit)
TTITLE12=Ellie Goulding - Lights
TTITLE13=Hurts - Sunday
TTITLE14=McFly - That's The Truth
TTITLE15=Eliza Doolittle - Mr Medicine
TTITLE16=Kanye West - All Of The Lights (Explicit)
TTITLE17=Duffy - Keeping My Baby
TTITLE18=Ironik Ft McLean - Killed Me
TTITLE19=Taylor Swift - Back To December
EXTD=
EXTT0=
EXTT1=
EXTT2=
EXTT3=
EXTT4=
EXTT5=
EXTT6=
EXTT7=
EXTT8=
EXTT9=
EXTT10=
EXTT11=
EXTT12=
EXTT13=
EXTT14=
EXTT15=
EXTT16=
EXTT17=
EXTT18=
EXTT19=
PLAYORDER=
